<?xml version="1.0" encoding="UTF-8" standalone="no"?>
<!DOCTYPE svg PUBLIC "-//W3C//DTD SVG 20010904//EN"
              "http://www.w3.org/TR/2001/REC-SVG-20010904/DTD/svg10.dtd">

<svg xmlns="http://www.w3.org/2000/svg"
     width="0.733333in" height="0.577778in"
     viewBox="0 0 66 52">
  <path id="Unnamed"
        fill="none" stroke="black" stroke-width="1"
        d="M 2.00,14.00
           C 2.00,14.00 4.18,19.55 4.18,19.55
             4.18,19.55 7.27,22.91 7.27,22.91
             7.27,22.91 11.55,27.36 11.55,27.36
             11.55,27.36 15.18,33.45 15.18,33.45
             15.18,33.45 16.82,37.82 16.82,37.82
             16.82,37.82 19.00,41.73 19.00,41.73
             19.00,41.73 12.45,35.45 12.45,35.45
             12.45,35.45 7.18,30.27 7.18,30.27
             7.18,30.27 13.18,34.36 13.27,34.36
             13.36,34.36 10.00,28.18 10.00,28.18
             10.00,28.18 5.00,26.64 5.00,26.64
             5.00,26.64 2.00,28.18 2.00,28.18
             2.00,28.18 1.36,31.45 1.36,31.45
             1.36,31.45 3.91,36.45 3.91,36.45
             3.91,36.45 12.36,46.09 12.36,46.09
             12.36,46.09 18.91,50.82 18.91,50.82
             18.91,50.82 26.00,49.09 26.00,49.09
             26.00,49.09 36.55,47.36 36.55,47.36
             36.55,47.36 54.82,48.18 54.82,48.18
             54.82,48.18 61.27,46.36 61.18,46.36
             61.09,46.36 64.27,42.00 64.27,42.00
             64.27,42.00 64.91,38.91 64.91,38.91
             64.91,38.91 64.64,35.73 64.64,35.73
             64.64,35.73 59.64,29.45 59.64,29.36
             59.64,29.27 54.82,24.36 54.82,24.36
             54.82,24.36 49.36,24.27 49.36,24.27
             49.36,24.27 34.82,26.00 34.82,26.00
             34.82,26.00 25.27,28.82 25.27,28.82
             25.27,28.82 22.55,33.45 22.55,33.45
             22.55,33.45 22.18,31.27 22.09,30.64
             22.00,30.00 24.73,25.73 24.73,25.73
             24.73,25.73 32.64,24.55 32.64,24.55
             32.64,24.55 46.27,22.45 46.27,22.45
             46.27,22.45 56.00,20.45 56.00,20.45
             56.00,20.45 59.18,15.27 59.18,15.27
             59.18,15.27 53.36,9.18 53.36,9.18
             53.36,9.18 47.82,3.64 47.82,3.64
             47.82,3.64 36.45,2.36 36.45,2.36
             36.45,2.36 27.73,2.27 27.73,2.27
             27.73,2.27 14.73,3.36 14.73,3.36
             14.73,3.36 7.27,6.36 7.27,6.36
             7.27,6.36 3.55,10.00 3.55,10.00
             3.55,10.00 2.00,14.00 2.00,14.00 Z" />
</svg>
