<?xml version="1.0" encoding="UTF-8" standalone="no"?>
<!DOCTYPE svg PUBLIC "-//W3C//DTD SVG 20010904//EN"
              "http://www.w3.org/TR/2001/REC-SVG-20010904/DTD/svg10.dtd">

<svg xmlns="http://www.w3.org/2000/svg"
     width="0.7in" height="0.666667in"
     viewBox="0 0 63 60">
  <path id="Imported Path"
        fill="none" stroke="black" stroke-width="1"
        d="M 30.73,23.76
           C 30.73,23.76 25.43,11.28 25.43,11.28
             25.16,10.65 24.89,10.00 24.63,9.36
             23.65,6.96 28.29,6.49 28.67,7.17
             29.55,12.52 30.28,17.89 31.03,23.25
             31.04,23.33 30.92,23.44 30.73,23.76 Z
           M 35.30,24.78
           C 35.74,20.39 38.99,0.00 39.49,0.00
             41.15,0.09 42.72,0.51 44.13,1.20
             44.87,2.79 36.38,23.03 35.65,24.86
             35.65,24.86 35.30,24.78 35.30,24.78 Z
           M 35.30,24.78
           C 35.30,24.78 35.71,24.78 35.71,24.78
             36.44,22.97 37.16,21.16 37.89,19.35
             39.96,14.08 42.12,8.76 44.23,3.41
             44.49,2.50 40.51,0.96 39.49,-0.00
             38.99,0.00 38.20,1.85 38.07,2.92
             37.47,6.65 37.06,10.41 36.60,14.16
             36.19,17.70 35.74,21.24 35.30,24.78 Z
           M 53.77,14.49
           C 54.72,13.75 55.86,12.38 52.38,12.38
             48.89,12.38 43.58,20.12 40.13,24.61
             40.13,24.61 53.77,14.49 53.77,14.49 Z
           M 30.73,23.76
           C 30.54,23.14 30.00,23.23 29.98,18.39
             28.50,7.66 30.73,23.76 30.73,23.76 Z
           M 61.98,42.28
           C 61.98,50.06 55.61,56.37 47.74,56.37
             39.87,56.37 33.50,50.06 33.50,42.28
             33.50,34.50 39.87,28.20 47.74,28.20
             55.61,28.20 61.98,34.50 61.98,42.28 Z
           M 61.98,42.28
           C 61.98,50.06 55.61,56.37 47.74,56.37
             39.87,56.37 33.50,50.06 33.50,42.28
             33.50,34.50 39.87,28.20 47.74,28.20
             55.61,28.20 61.98,34.50 61.98,42.28 Z
           M 35.05,38.91
           C 35.80,42.89 36.54,46.90 37.28,50.94
             37.62,52.81 35.62,54.48 32.25,55.10
             32.25,55.10 11.50,59.12 11.50,59.12
             5.50,58.88 8.29,57.88 6.38,57.88
             4.25,51.62 2.52,40.73 1.06,32.70
             0.67,30.71 2.61,29.05 6.23,28.38
             13.01,27.14 19.79,25.92 26.59,24.71
             30.02,24.10 31.75,24.38 33.00,30.38
             33.25,33.88 34.32,34.91 35.05,38.91 Z" />
</svg>
