<?xml version="1.0" encoding="UTF-8" standalone="no"?>
<!DOCTYPE svg PUBLIC "-//W3C//DTD SVG 20010904//EN"
              "http://www.w3.org/TR/2001/REC-SVG-20010904/DTD/svg10.dtd">

<svg xmlns="http://www.w3.org/2000/svg"
     width="0.7in" height="0.7in"
     viewBox="0 0 63 63">
  <path id="path2217"
        fill="none" stroke="black" stroke-width="1"
        d="M 44.48,19.74
           C 44.48,22.83 44.48,25.92 44.48,29.00
             44.48,30.45 42.77,31.42 40.20,31.43
             40.20,31.43 24.43,31.43 24.43,31.43
             21.84,31.43 20.15,30.46 20.15,29.00
             20.15,22.85 20.15,16.69 20.15,10.54
             20.16,8.97 21.81,8.00 24.58,8.00
             29.77,8.00 34.96,8.00 40.15,8.00
             42.78,8.00 44.48,9.00 44.48,10.48
             44.49,13.56 44.48,16.65 44.48,19.74
             44.48,19.74 44.48,19.74 44.48,19.74 Z
           M 31.96,16.62
           C 34.42,16.64 36.85,16.81 39.22,17.14
             42.60,17.55 45.83,18.46 48.83,19.79
             50.30,20.42 51.63,21.32 52.76,22.43
             53.55,23.14 54.10,24.12 54.27,25.22
             54.36,26.07 54.35,29.19 54.27,30.02
             53.78,36.77 50.46,42.74 45.48,46.75
             45.20,46.94 45.01,47.25 45.01,47.62
             44.97,48.61 44.50,49.49 43.77,50.07
             42.60,51.13 41.21,51.97 39.67,52.50
             37.84,53.18 35.86,53.61 33.81,53.76
             33.01,53.83 32.17,53.87 31.33,53.87
             30.26,53.87 29.21,53.81 28.18,53.69
             25.57,53.48 23.11,52.74 20.91,51.58
             20.08,51.11 19.34,50.51 18.71,49.80
             18.16,49.21 17.83,48.42 17.83,47.55
             17.83,47.51 17.83,47.47 17.83,47.43
             17.83,47.42 17.83,47.40 17.83,47.39
             17.83,47.19 17.72,47.01 17.56,46.90
             14.66,44.60 12.31,41.64 10.75,38.23
             9.58,35.82 8.83,33.15 8.58,30.34
             8.51,29.47 8.51,26.34 8.51,25.49
             8.59,24.50 9.01,23.60 9.65,22.90
             10.57,21.84 11.70,20.97 12.96,20.33
             15.30,19.12 17.83,18.22 20.51,17.71
             23.90,16.99 27.47,16.62 31.12,16.62
             31.40,16.62 31.68,16.62 31.96,16.62
             31.96,16.62 31.96,16.62 31.96,16.62 Z
           M 31.31,36.00
           C 31.57,36.00 31.85,36.00 32.12,36.00
             35.63,36.00 39.04,35.60 42.32,34.85
             44.35,34.39 46.27,33.66 48.05,32.71
             49.05,32.20 49.94,31.48 50.64,30.61
             51.03,30.14 51.26,29.53 51.26,28.87
             51.26,28.18 51.01,27.55 50.59,27.07
             49.83,26.18 48.90,25.43 47.85,24.89
             45.91,23.88 43.79,23.13 41.56,22.70
             39.03,22.15 36.37,21.82 33.65,21.74
             32.96,21.71 32.24,21.69 31.53,21.69
             28.46,21.69 25.47,21.98 22.56,22.53
             20.31,22.94 18.15,23.64 16.13,24.57
             14.92,25.10 13.84,25.88 12.95,26.83
             12.42,27.33 12.09,28.04 12.09,28.83
             12.09,29.45 12.30,30.03 12.65,30.49
             12.88,30.79 13.13,31.07 13.41,31.32
             14.52,32.31 15.81,33.10 17.23,33.62
             19.83,34.65 22.63,35.34 25.53,35.66
             27.28,35.88 29.11,36.00 30.96,36.00
             31.07,36.00 31.18,36.00 31.29,36.00
             31.29,36.00 31.31,36.00 31.31,36.00 Z" />
</svg>
