<?xml version="1.0" encoding="UTF-8" standalone="no"?>
<!DOCTYPE svg PUBLIC "-//W3C//DTD SVG 20010904//EN"
              "http://www.w3.org/TR/2001/REC-SVG-20010904/DTD/svg10.dtd">

<svg xmlns="http://www.w3.org/2000/svg"
     width="0.588889in" height="0.922222in"
     viewBox="0 0 53 83">
  <path id="Imported Path"
        fill="none" stroke="black" stroke-width="1"
        d="M 52.00,50.00
           C 52.00,50.00 52.00,75.36 52.00,75.36
             52.00,79.34 49.75,81.99 46.36,82.00
             39.43,82.00 32.51,82.00 25.58,82.00
             22.18,82.00 19.95,79.33 19.95,75.34
             19.95,58.50 19.95,41.65 19.95,24.79
             19.95,20.52 22.12,17.91 25.77,17.90
             32.62,17.86 39.46,17.86 46.29,17.90
             49.75,17.90 51.99,20.62 51.99,24.65
             51.99,24.65 52.00,50.00 52.00,50.00 Z
           M 43.06,40.61
           C 43.06,40.61 43.06,65.97 43.06,65.97
             43.06,69.95 40.81,72.60 37.41,72.61
             30.50,72.60 23.57,72.60 16.64,72.60
             13.24,72.60 11.01,69.94 11.01,65.94
             11.01,49.10 11.01,32.25 11.01,15.40
             11.01,11.12 13.19,8.51 16.83,8.50
             23.67,8.46 30.51,8.46 37.35,8.50
             40.81,8.50 43.05,11.23 43.05,15.26
             43.05,15.26 43.06,40.61 43.06,40.61 Z
           M 33.05,33.13
           C 33.05,41.58 33.05,50.03 33.05,58.49
             33.05,62.46 30.80,65.11 27.41,65.12
             20.48,65.12 13.56,65.12 6.64,65.12
             3.23,65.11 1.00,62.46 1.00,58.47
             1.00,41.62 1.00,24.78 1.00,7.96
             1.00,3.64 3.18,0.99 6.84,0.99
             13.67,0.99 20.51,0.99 27.35,0.99
             30.81,0.99 33.05,3.72 33.05,7.75
             33.06,16.21 33.06,24.67 33.05,33.13 Z" />
</svg>
