<?xml version="1.0" encoding="UTF-8" standalone="no"?>
<!DOCTYPE svg PUBLIC "-//W3C//DTD SVG 20010904//EN"
              "http://www.w3.org/TR/2001/REC-SVG-20010904/DTD/svg10.dtd">

<svg xmlns="http://www.w3.org/2000/svg"
     width="0.333333in" height="0.644444in"
     viewBox="0 0 30 58">
  <path id="Imported Path"
        fill="none" stroke="black" stroke-width="1"
        d="M 15.39,0.00
           C 15.39,0.00 15.39,22.49 15.39,22.49M 23.73,5.25
           C 23.73,5.25 23.73,27.73 23.73,27.73M 7.05,5.25
           C 7.05,5.25 7.05,27.73 7.05,27.73M 29.00,42.71
           C 29.00,50.59 22.73,56.98 15.00,56.98
             7.26,56.98 0.99,50.59 0.99,42.71
             0.99,34.83 7.26,28.44 15.00,28.44
             22.73,28.44 29.00,34.83 29.00,42.71 Z
           M 29.00,42.71
           C 29.00,50.59 22.73,56.98 15.00,56.98
             7.26,56.98 0.99,50.59 0.99,42.71
             0.99,34.83 7.26,28.44 15.00,28.44
             22.73,28.44 29.00,34.83 29.00,42.71 Z" />
</svg>
