<?xml version="1.0" encoding="UTF-8" standalone="no"?>
<!DOCTYPE svg PUBLIC "-//W3C//DTD SVG 20010904//EN"
              "http://www.w3.org/TR/2001/REC-SVG-20010904/DTD/svg10.dtd">

<svg xmlns="http://www.w3.org/2000/svg"
     width="0.611111in" height="0.822222in"
     viewBox="0 0 55 74">
  <path id="Imported Path"
        fill="none" stroke="black" stroke-width="1"
        d="M 27.50,58.70
           C 24.11,58.70 20.77,58.50 17.38,58.50
             12.62,58.50 13.12,47.38 15.62,47.12
             25.40,47.12 39.88,47.50 39.88,47.50
             41.98,47.50 41.50,56.75 40.88,57.75
             39.00,59.12 27.50,58.70 27.50,58.70 Z
           M 27.06,-0.00 27.52,0.00 26.98,-0.01 27.06,-0.00
           M 16.19,16.81
           C 17.84,16.76 37.41,16.57 37.41,16.57
             37.46,16.57 37.51,16.57 37.56,16.57
             39.86,16.57 41.77,18.25 42.13,20.45
             42.16,20.74 42.10,24.46 42.02,25.17
             41.60,27.17 39.86,28.69 37.75,28.78
             2.31,31.06 13.71,16.92 16.19,16.81 Z
           M 13.72,43.43
           C 13.71,43.43 13.69,43.43 13.68,43.43
             11.04,43.43 8.89,41.30 8.89,38.66
             8.89,38.64 8.89,38.61 8.89,38.59
             8.89,37.47 9.79,32.13 12.12,32.12
             18.73,32.12 23.27,32.24 29.88,32.24
             29.88,32.24 37.76,32.24 37.76,32.24
             37.82,32.23 39.69,32.62 39.75,32.62
             42.34,32.62 42.64,34.33 42.64,36.91
             42.64,36.97 42.64,37.03 42.64,37.09
             42.65,37.43 42.66,37.79 42.66,38.15
             42.66,38.92 42.63,39.67 42.57,40.42
             42.29,42.68 39.08,43.38 39.06,43.38
             37.38,43.19 18.31,43.43 13.72,43.43 Z
           M 50.13,61.74
           C 50.18,61.74 50.23,61.74 50.28,61.74
             52.88,61.74 54.99,63.84 54.99,66.44
             54.99,66.49 54.99,66.53 54.99,66.58
             55.00,66.90 55.01,67.23 55.01,67.57
             55.01,68.39 54.97,69.21 54.90,70.02
             54.61,72.29 52.67,74.04 50.32,74.04
             50.30,74.04 50.28,74.04 50.27,74.04
             46.24,74.04 42.21,74.04 38.11,74.04
             38.11,74.04 5.68,74.04 5.68,74.04
             5.50,74.06 5.31,74.07 5.12,74.07
             4.20,74.07 3.34,73.86 2.56,73.50
             1.13,72.80 -0.00,68.63 -0.00,68.10
             -0.00,67.28 0.04,66.47 0.12,65.67
             0.47,63.45 2.38,61.76 4.69,61.74
             4.69,61.74 50.13,61.74 50.13,61.74 Z
           M 2.56,73.48 3.13,73.66 1.12,72.78 2.56,73.48
           M 8.98,34.68
           C 8.85,35.80 8.91,36.93 8.89,38.06
             8.89,38.08 8.89,38.11 8.89,38.13
             8.89,40.76 9.25,32.43 8.98,34.68 Z
           M 30.69,2.48
           C 30.69,2.45 29.71,0.09 28.46,-0.00
             27.99,0.00 27.52,0.00 27.06,0.00
             26.97,-0.01 24.29,1.11 24.29,2.49
             24.29,2.57 24.31,7.85 24.31,10.40
             24.31,11.21 24.31,12.04 24.31,12.85
             24.32,14.17 25.40,15.23 26.72,15.23
             32.62,15.44 30.69,4.21 30.69,2.48 Z" />
</svg>
