<?xml version="1.0" encoding="UTF-8" standalone="no"?>
<!DOCTYPE svg PUBLIC "-//W3C//DTD SVG 20010904//EN"
              "http://www.w3.org/TR/2001/REC-SVG-20010904/DTD/svg10.dtd">

<svg xmlns="http://www.w3.org/2000/svg"
     width="0.933333in" height="0.555556in"
     viewBox="0 0 84 50">
  <path id="Imported Path"
        fill="none" stroke="black" stroke-width="1"
        d="M 63.56,10.92
           C 63.56,16.41 59.10,20.85 53.60,20.85
             48.09,20.85 43.63,16.41 43.63,10.92
             43.63,5.44 48.09,1.00 53.60,1.00
             59.10,1.00 63.56,5.44 63.56,10.92 Z
           M 63.56,10.92
           C 63.56,16.41 59.10,20.85 53.60,20.85
             48.09,20.85 43.63,16.41 43.63,10.92
             43.63,5.44 48.09,1.00 53.60,1.00
             59.10,1.00 63.56,5.44 63.56,10.92 Z
           M 24.40,21.61
           C 25.50,24.14 26.77,27.57 27.87,30.61
             29.13,30.35 16.40,36.42 12.05,38.27
             9.87,40.39 7.67,37.79 7.67,37.79
             7.67,37.79 1.16,22.62 1.16,22.62
             0.60,21.33 1.62,20.01 3.89,19.01
             8.15,17.17 12.41,15.34 16.67,13.52
             18.83,12.60 20.58,12.81 21.62,12.81
             21.62,12.81 24.40,21.61 24.40,21.61 Z
           M 6.50,49.95
           C 6.50,49.95 82.17,19.52 82.17,19.52
             81.09,27.02 81.49,34.67 80.41,42.14
             80.41,42.14 6.51,50.02 6.51,50.02
             6.51,50.02 6.50,49.95 6.50,49.95 Z
           M 1.00,32.08
           C 1.00,32.08 6.74,29.90 6.74,29.90
             6.74,29.90 29.98,21.09 29.98,21.09
             29.98,21.09 54.09,11.94 54.09,11.94
             54.09,11.94 66.74,7.13 66.74,7.13
             66.74,7.13 82.96,18.13 82.96,18.13
             82.96,18.13 2.27,49.31 2.27,49.31
             2.27,48.73 2.18,48.18 2.14,47.62
             2.06,46.49 1.97,45.35 1.89,44.21
             1.81,43.07 1.74,42.02 1.66,40.93
             1.66,40.93 1.42,37.65 1.42,37.65
             1.34,36.56 1.26,35.47 1.19,34.38
             1.13,33.73 1.09,33.07 1.04,32.38
             1.04,32.32 1.04,32.27 1.04,32.22
             1.04,32.22 1.00,32.08 1.00,32.08 Z" />
</svg>
