<?xml version="1.0" encoding="UTF-8" standalone="no"?>
<!DOCTYPE svg PUBLIC "-//W3C//DTD SVG 20010904//EN"
              "http://www.w3.org/TR/2001/REC-SVG-20010904/DTD/svg10.dtd">

<svg xmlns="http://www.w3.org/2000/svg"
     width="0.433333in" height="0.9in"
     viewBox="0 0 39 81">
  <path id="Imported Path"
        fill="none" stroke="black" stroke-width="1"
        d="M 28.22,14.18
           C 28.22,17.65 28.22,21.13 28.22,24.60
             28.22,26.22 26.31,27.31 23.43,27.31
             17.55,27.31 11.67,27.31 5.80,27.31
             2.90,27.30 1.01,26.23 1.01,24.59
             1.01,17.68 1.01,10.77 1.01,3.85
             1.01,2.09 2.87,1.01 5.97,1.01
             11.77,1.01 17.57,1.01 23.38,1.01
             26.32,1.01 28.22,2.12 28.22,3.77
             28.22,3.77 28.22,14.18 28.22,14.18 Z
           M 37.99,40.79
           C 37.99,40.79 37.99,51.19 37.99,51.19
             37.99,52.81 36.08,53.91 33.20,53.91
             33.20,53.91 15.57,53.91 15.57,53.91
             12.67,53.91 10.78,52.82 10.78,51.18
             10.78,44.27 10.78,37.36 10.78,30.45
             10.78,28.69 12.62,27.62 15.73,27.62
             21.54,27.62 27.34,27.62 33.14,27.62
             36.08,27.62 37.98,28.74 37.98,30.40
             37.98,30.40 37.99,40.79 37.99,40.79 Z
           M 30.84,66.87
           C 30.84,66.87 30.84,77.27 30.84,77.27
             30.84,78.90 28.93,79.98 26.04,79.99
             20.16,79.99 14.28,79.99 8.40,79.99
             5.51,79.99 3.62,78.90 3.62,77.27
             3.62,77.27 3.62,56.52 3.62,56.52
             3.62,54.77 5.47,53.71 8.57,53.70
             14.38,53.70 20.19,53.70 26.00,53.70
             28.94,53.70 30.84,54.81 30.84,56.46
             30.84,56.46 30.84,66.87 30.84,66.87 Z" />
</svg>
